{"title":"4 3 2 1 (2010) DvdRip [Xvid] {1337x}-X.avi","uid":6044399,"size":734416896,"categoryP":"video","categoryS":"movies","magnet":"?xt=urn:btih:bfffca70ec06c298172729839b3cd470af89be4b&amp;dn=4+3+2+1+%282010%29+DvdRip+%5BXvid%5D+%7B1337x%7D-X.avi&amp;tr=udp%3A%2F%2Ftracker.openbittorrent.com%3A80&amp;tr=udp%3A%2F%2Fopen.demonii.com%3A1337&amp;tr=udp%3A%2F%2Ftracker.coppersurfer.tk%3A6969&amp;tr=udp%3A%2F%2Fexodus.desync.com%3A6969","seeders":1,"leechers":0,"uploader":"hiest","files":-1,"time":1292500063,"description":"ad feedback\n\nWhile Jo (Roberts) is chained down in a dead end supermarket job, her friends are all out on their own separate adventures: Cassandra (Egerton) is jetting off to New York to meet her Internet boyfriend; Kerrys (Warren-Markland) is on a one woman crusade fighting for female liberation and Shannon (Lovibond) is on a one way trip to meet her maker. But a chance encounter with some diamond thieves sends their separate worlds on a collision course with not only each other, but fate itself. These 4 girls are about to have 3 days they will never forget, spanning to 2 cities. That is ... if they survive.\n\n\n\n\n\n\n\n\nScreens:\n &lt;a href=&quot;\nhttp://leetleech.org/images/78591665139811670423.jpg&quot; rel=&quot;nofollow&quot; target=&quot;_NEW&quot;&gt;\nhttp://leetleech.org/images/78591665139811670423.jpg&lt;/a&gt;\n\n\n\n\n\n\n\nVideo\n\nCodec ID/Hint : XviD\nDuration : 1h 51mn\nBit rate : 760 Kbps\nWidth : 656 pixels\nHeight : 272 pixels\nDisplay aspect ratio : 2.40:1\nFrame rate : 25.000 fps\nColor space : YUV\nChroma subsampling : 4:2:0\nBit depth : 8 bits\nScan type : Progressive\nBits/(Pixel*Frame) : 0.170\nStream size : 608 MiB (87%)\nWriting library : XviD 57\n\n\nCodec ID/Hint : MP3\nDuration : 1h 51mn\nBit rate mode : Variable\nBit rate : 102 Kbps\nNominal bit rate : 112 Kbps\nChannel(s) : 2 channels\nSampling rate : 48.0 KHz\nStream size : 81.7 MiB (12%)\nAlignment : Aligned on interleaves\nInterleave, duration : 24 ms (0.60 video frame)\nInterleave, preload duration : 512 ms\nWriting library : LAME3.97\n\n\n\n\n\n================================== &lt;a href=&quot;\nhttp://thepiratebay.se/user/hiest&quot; rel=&quot;nofollow&quot; target=&quot;_NEW&quot;&gt;\nhttp://thepiratebay.se/user/hiest&lt;/a&gt;\n==================================\n\n\n\n\n\nIMDB &lt;a href=&quot;\nhttp://www.imdb.com/title/tt1514041/&quot; rel=&quot;nofollow&quot; target=&quot;_NEW&quot;&gt;\nhttp://www.imdb.com/title/tt1514041/&lt;/a&gt;","torrent":{"xt":"urn:btih:bfffca70ec06c298172729839b3cd470af89be4b","amp;dn":"4+3+2+1+%282010%29+DvdRip+%5BXvid%5D+%7B1337x%7D-X.avi","amp;tr":["udp%3A%2F%2Ftracker.openbittorrent.com%3A80","udp%3A%2F%2Fopen.demonii.com%3A1337","udp%3A%2F%2Ftracker.coppersurfer.tk%3A6969","udp%3A%2F%2Fexodus.desync.com%3A6969"],"infoHash":"bfffca70ec06c298172729839b3cd470af89be4b","infoHashBuffer":{"type":"Buffer","data":[191,255,202,112,236,6,194,152,23,39,41,131,155,60,212,112,175,137,190,75]},"announce":[],"urlList":[]}}